<svg width="87" height="21" viewBox="0 0 87 21" fill="none" xmlns="http://www.w3.org/2000/svg">
<path d="M2.832 3.968L0.864 3.656V2.168H14.112L14.352 6.512H12.432L11.544 3.872L6.36 3.608V10.4L9.936 10.328L10.392 8.216H11.928V14.312H10.416L9.936 12.152L6.36 12.056V18.32L10.032 18.56V20H0.984V18.56L2.832 18.32V3.968ZM26.8337 20.24C26.3057 20.24 25.9217 20.128 25.6817 19.904C25.4417 19.68 25.3217 19.344 25.3217 18.896V18.248C24.8897 18.776 24.2817 19.248 23.4977 19.664C22.7137 20.064 21.9297 20.264 21.1457 20.264C19.6097 20.264 18.5137 19.872 17.8577 19.088C17.2017 18.288 16.8737 16.976 16.8737 15.152V8.384L15.6737 8.048V6.68L19.7537 6.368H19.7777L20.2577 6.704V15.152C20.2577 16.32 20.4017 17.136 20.6897 17.6C20.9777 18.064 21.5137 18.296 22.2977 18.296C23.2417 18.296 24.1217 17.928 24.9377 17.192V8.384L23.3297 8.024V6.68L27.6737 6.368H27.7217L28.2977 6.704V18.512H29.6417L29.6177 19.88C29.5537 19.896 29.2577 19.96 28.7297 20.072C28.2017 20.184 27.5697 20.24 26.8337 20.24ZM32.6818 8.936L31.1458 8.504V6.848L35.1298 6.344H35.2018L35.8018 6.824V7.76L35.7778 8.336C36.3378 7.808 37.0658 7.352 37.9618 6.968C38.8578 6.584 39.7618 6.392 40.6738 6.392C41.6498 6.392 42.4098 6.576 42.9538 6.944C43.5138 7.296 43.9138 7.856 44.1538 8.624C44.3938 9.392 44.5138 10.432 44.5138 11.744V18.368L45.9778 18.56V20H39.7858V18.56L41.0818 18.368V11.744C41.0818 10.912 41.0258 10.264 40.9138 9.8C40.8018 9.32 40.5938 8.976 40.2898 8.768C40.0018 8.544 39.5858 8.432 39.0418 8.432C38.1298 8.432 37.1538 8.824 36.1138 9.608V18.344L37.5538 18.56V20H31.2898V18.56L32.6818 18.344V8.936ZM50.5298 4.472C49.9538 4.472 49.4978 4.304 49.1618 3.968C48.8258 3.632 48.6578 3.2 48.6578 2.672C48.6578 2.064 48.8498 1.56 49.2338 1.16C49.6178 0.759999 50.1298 0.559999 50.7698 0.559999C51.4098 0.559999 51.8978 0.735999 52.2338 1.088C52.5698 1.424 52.7378 1.848 52.7378 2.36C52.7378 3 52.5458 3.512 52.1618 3.896C51.7778 4.28 51.2418 4.472 50.5538 4.472H50.5298ZM49.2578 8.936L47.5538 8.48V6.872L51.9458 6.344H51.9938L52.6658 6.824V18.368L54.2738 18.56V20H47.5778V18.56L49.2578 18.344V8.936ZM55.9941 18.584L57.5781 18.392V8.936L56.0421 8.504V6.848L59.7621 6.344H59.8341L60.4341 6.824V7.352L60.3621 9.296H60.4341C60.5461 8.976 60.8101 8.584 61.2261 8.12C61.6421 7.64 62.1621 7.224 62.7861 6.872C63.4261 6.504 64.1141 6.32 64.8501 6.32C65.2021 6.32 65.5061 6.368 65.7621 6.464V10.064C65.2821 9.728 64.6981 9.56 64.0101 9.56C62.8421 9.56 61.8261 9.872 60.9621 10.496V18.368L63.7461 18.584V20H55.9941V18.584ZM67.2909 13.352C67.2909 11.848 67.5869 10.568 68.1789 9.512C68.7869 8.456 69.5949 7.664 70.6029 7.136C71.6109 6.592 72.7069 6.32 73.8909 6.32C75.9069 6.32 77.4589 6.944 78.5469 8.192C79.6509 9.424 80.2029 11.104 80.2029 13.232C80.2029 14.752 79.8989 16.048 79.2909 17.12C78.6989 18.176 77.8989 18.968 76.8909 19.496C75.8989 20.008 74.8029 20.264 73.6029 20.264C71.6029 20.264 70.0509 19.648 68.9469 18.416C67.8429 17.168 67.2909 15.48 67.2909 13.352ZM73.7949 18.704C75.6029 18.704 76.5069 16.96 76.5069 13.472C76.5069 11.648 76.2909 10.264 75.8589 9.32C75.4269 8.36 74.7229 7.88 73.7469 7.88C71.8909 7.88 70.9629 9.624 70.9629 13.112C70.9629 14.936 71.1869 16.328 71.6349 17.288C72.0989 18.232 72.8189 18.704 73.7949 18.704ZM84.6407 20.216C84.1447 20.216 83.7127 20.048 83.3447 19.712C82.9767 19.36 82.7927 18.92 82.7927 18.392C82.7927 17.8 83.0007 17.32 83.4167 16.952C83.8487 16.568 84.3687 16.376 84.9767 16.376C85.5527 16.376 86.0087 16.56 86.3447 16.928C86.6807 17.28 86.8487 17.704 86.8487 18.2C86.8487 18.824 86.6407 19.32 86.2247 19.688C85.8247 20.04 85.2967 20.216 84.6407 20.216Z" fill="black"/>
</svg>
