<svg width="20" height="18" viewBox="0 0 20 18" fill="none" xmlns="http://www.w3.org/2000/svg">
<path d="M18.9548 0.217693C18.8477 0.116948 18.7124 0.0471962 18.5648 0.0166383C18.4172 -0.0139196 18.2634 -0.00401299 18.1215 0.0451934L0.660875 6.04519C0.510291 6.09917 0.380648 6.19516 0.289163 6.32041C0.197678 6.44566 0.148682 6.59425 0.148682 6.74644C0.148682 6.89863 0.197678 7.04722 0.289163 7.17248C0.380648 7.29773 0.510291 7.39372 0.660875 7.44769L7.47845 10.0202L12.5103 5.25019L13.6293 6.30769L8.57371 11.0852L11.3039 17.5277C11.3627 17.6672 11.4645 17.7869 11.5961 17.8711C11.7277 17.9554 11.8831 18.0003 12.042 18.0002C12.2024 17.9971 12.358 17.9481 12.4884 17.8598C12.6187 17.7714 12.7177 17.6478 12.7722 17.5052L19.1215 1.00519C19.1756 0.872501 19.1886 0.728016 19.1591 0.588586C19.1296 0.449156 19.0588 0.320526 18.9548 0.217693Z" fill="white"/>
</svg>
